<svg id="written-feedback" enable-background="new 0 0 300 300" height="512" viewBox="0 0 300 300" width="512" xmlns="http://www.w3.org/2000/svg"><path d="m158 194c-2.117 0-4.156-.836-5.656-2.344l-16-16c-3.125-3.125-3.125-8.188 0-11.312s8.188-3.125 11.312 0l9.805 9.805 34.391-41.273c2.828-3.391 7.867-3.852 11.273-1.023 3.391 2.828 3.852 7.875 1.023 11.273l-40 48c-1.445 1.727-3.539 2.766-5.789 2.867-.117.007-.242.007-.359.007z" fill="#d8b400"/><path d="m238.883 58h-24.883c0-4.422-3.578-8-8-8h-17.75l-6.492-25.938c-.891-3.562-4.086-6.062-7.758-6.062h-48c-3.672 0-6.867 2.5-7.758 6.062l-6.492 25.938h-17.75c-4.422 0-8 3.578-8 8h-24.883c-12.75 0-23.117 10.367-23.117 23.117v177.766c0 12.75 10.367 23.117 23.117 23.117h177.766c12.75 0 23.117-10.367 23.117-23.117v-177.766c0-12.75-10.367-23.117-23.117-23.117zm-144.883 40h112 16v144h-144v-144zm8-32h16c3.672 0 6.867-2.5 7.758-6.062l6.492-25.938h35.5l6.492 25.938c.891 3.562 4.086 6.062 7.758 6.062h16v16h-96zm144 192.883c0 3.922-3.195 7.117-7.117 7.117h-177.766c-3.922 0-7.117-3.195-7.117-7.117v-177.766c0-3.922 3.195-7.117 7.117-7.117h24.883v8h-10.992c-7.172 0-13.008 5.836-13.008 13.008v149.984c0 7.172 5.836 13.008 13.008 13.008h149.984c7.172 0 13.008-5.836 13.008-13.008v-149.984c0-7.172-5.836-13.008-13.008-13.008h-10.992v-8h24.883c3.922 0 7.117 3.195 7.117 7.117z"/><path d="m110 218h80c4.422 0 8-3.578 8-8v-24c0-4.422-3.578-8-8-8s-8 3.578-8 8v16h-64v-64h52c4.422 0 8-3.578 8-8s-3.578-8-8-8h-60c-4.422 0-8 3.578-8 8v80c0 4.422 3.578 8 8 8z"/><path d="m158 50h-16c-4.422 0-8 3.578-8 8s3.578 8 8 8h16c4.422 0 8-3.578 8-8s-3.578-8-8-8z"/></svg>