<?xml version="1.0" encoding="UTF-8" standalone="no"?>
<!-- Generator: Adobe Illustrator 19.0.0, SVG Export Plug-In . SVG Version: 6.00 Build 0)  -->

<svg
   xmlns:dc="http://purl.org/dc/elements/1.1/"
   xmlns:cc="http://creativecommons.org/ns#"
   xmlns:rdf="http://www.w3.org/1999/02/22-rdf-syntax-ns#"
   xmlns:svg="http://www.w3.org/2000/svg"
   xmlns="http://www.w3.org/2000/svg"
   xmlns:sodipodi="http://sodipodi.sourceforge.net/DTD/sodipodi-0.dtd"
   xmlns:inkscape="http://www.inkscape.org/namespaces/inkscape"
   version="1.1"
   id="Capa_1"
   x="0px"
   y="0px"
   viewBox="0 0 489.2 489.2"
   style="enable-background:new 0 0 489.2 489.2;"
   xml:space="preserve"
   sodipodi:docname="calendario.svg"
   inkscape:version="0.92.5 (2060ec1f9f, 2020-04-08)"><metadata
   id="metadata43"><rdf:RDF><cc:Work
       rdf:about=""><dc:format>image/svg+xml</dc:format><dc:type
         rdf:resource="http://purl.org/dc/dcmitype/StillImage" /></cc:Work></rdf:RDF></metadata><defs
   id="defs41" /><sodipodi:namedview
   pagecolor="#ffffff"
   bordercolor="#666666"
   borderopacity="1"
   objecttolerance="10"
   gridtolerance="10"
   guidetolerance="10"
   inkscape:pageopacity="0"
   inkscape:pageshadow="2"
   inkscape:window-width="1366"
   inkscape:window-height="705"
   id="namedview39"
   showgrid="false"
   inkscape:zoom="0.48242027"
   inkscape:cx="290.2034"
   inkscape:cy="244.60001"
   inkscape:window-x="-8"
   inkscape:window-y="-8"
   inkscape:window-maximized="1"
   inkscape:current-layer="Capa_1" />
<g
   id="g6"
   style="fill:#00222b;fill-opacity:1">
	<g
   id="g4"
   style="fill:#00222b;fill-opacity:1">
		<path
   d="M177.8,238.1c0,4.5-3.6,8.1-8.1,8.1h-30.4c-4.5,0-8.1-3.6-8.1-8.1v-30.4c0-4.5,3.6-8.1,8.1-8.1h30.4    c4.5,0,8.1,3.6,8.1,8.1V238.1z M241.3,207.8c0-4.5-3.6-8.1-8.1-8.1h-30.4c-4.5,0-8.1,3.6-8.1,8.1v30.4c0,4.5,3.6,8.1,8.1,8.1h30.4    c4.5,0,8.1-3.6,8.1-8.1V207.8z M304.8,207.8c0-4.5-3.6-8.1-8.1-8.1h-30.4c-4.5,0-8.1,3.6-8.1,8.1v30.4c0,4.5,3.6,8.1,8.1,8.1h30.4    c4.5,0,8.1-3.6,8.1-8.1V207.8z M177.8,269.6c0-4.5-3.6-8.1-8.1-8.1h-30.4c-4.5,0-8.1,3.6-8.1,8.1V300c0,4.5,3.6,8.1,8.1,8.1h30.4    c4.5,0,8.1-3.6,8.1-8.1V269.6z M241.3,269.6c0-4.5-3.6-8.1-8.1-8.1h-30.4c-4.5,0-8.1,3.6-8.1,8.1V300c0,4.5,3.6,8.1,8.1,8.1h30.4    c4.5,0,8.1-3.6,8.1-8.1V269.6z M296.7,261.5h-30.4c-4.5,0-8.1,3.6-8.1,8.1V300c0,4.5,3.6,8.1,8.1,8.1h30.4c4.5,0,8.1-3.6,8.1-8.1    v-30.4C304.8,265.1,301.2,261.5,296.7,261.5z M106.1,323.3H75.8c-4.5,0-8.1,3.6-8.1,8.1v30.4c0,4.5,3.6,8.1,8.1,8.1h30.4    c4.5,0,8.1-3.6,8.1-8.1v-30.4C114.3,326.9,110.6,323.3,106.1,323.3z M114.3,269.6c0-4.5-3.6-8.1-8.1-8.1H75.8    c-4.5,0-8.1,3.6-8.1,8.1V300c0,4.5,3.6,8.1,8.1,8.1h30.4c4.5,0,8.1-3.6,8.1-8.1V269.6z M233.2,323.3h-30.4c-4.5,0-8.1,3.6-8.1,8.1    v30.4c0,4.5,3.6,8.1,8.1,8.1h30.4c4.5,0,8.1-3.6,8.1-8.1v-30.4C241.3,326.9,237.7,323.3,233.2,323.3z M169.7,323.3h-30.4    c-4.5,0-8.1,3.6-8.1,8.1v30.4c0,4.5,3.6,8.1,8.1,8.1h30.4c4.5,0,8.1-3.6,8.1-8.1v-30.4C177.8,326.9,174.2,323.3,169.7,323.3z     M360.2,246.3c4.5,0,8.1-3.6,8.1-8.1v-30.4c0-4.5-3.6-8.1-8.1-8.1h-30.4c-4.5,0-8.1,3.6-8.1,8.1v30.4c0,4.5,3.6,8.1,8.1,8.1H360.2    z M47.7,435.9h230.7c-3.7-11.6-5.8-24-5.9-36.8H47.7c-6,0-10.8-4.9-10.8-10.8V171h361.7v101.1c12.8,0.1,25.2,2,36.8,5.7V94.9    c0-26.3-21.4-47.7-47.7-47.7h-53.4V17.8c0-9.6-7.8-17.4-17.4-17.4h-27.1c-9.6,0-17.4,7.8-17.4,17.4v29.5H163V17.8    c0-9.6-7.8-17.4-17.4-17.4h-27.1c-9.6,0-17.4,7.8-17.4,17.4v29.5H47.7C21.4,47.3,0,68.7,0,95v293.3C0,414.5,21.4,435.9,47.7,435.9    z M489.2,397.7c0,50.3-40.8,91.1-91.1,91.1S307,448,307,397.7s40.8-91.1,91.1-91.1S489.2,347.4,489.2,397.7z M444.1,374.1    c0-2.9-1.1-5.7-3.2-7.7c-4.3-4.3-11.2-4.3-15.5,0L385.8,406l-15.2-15.2c-4.3-4.3-11.2-4.3-15.5,0c-2.1,2.1-3.2,4.8-3.2,7.7    c0,2.9,1.1,5.7,3.2,7.7l22.9,22.9c4.3,4.3,11.2,4.3,15.5,0l47.3-47.3C443,379.8,444.1,377,444.1,374.1z"
   id="path2"
   style="fill:#00222b;fill-opacity:1" />
	</g>
</g>
<g
   id="g8">
</g>
<g
   id="g10">
</g>
<g
   id="g12">
</g>
<g
   id="g14">
</g>
<g
   id="g16">
</g>
<g
   id="g18">
</g>
<g
   id="g20">
</g>
<g
   id="g22">
</g>
<g
   id="g24">
</g>
<g
   id="g26">
</g>
<g
   id="g28">
</g>
<g
   id="g30">
</g>
<g
   id="g32">
</g>
<g
   id="g34">
</g>
<g
   id="g36">
</g>
</svg>