<?xml version="1.0" encoding="UTF-8" standalone="no"?>
<!-- Created with Inkscape (http://www.inkscape.org/) -->

<svg
   xmlns:dc="http://purl.org/dc/elements/1.1/"
   xmlns:cc="http://creativecommons.org/ns#"
   xmlns:rdf="http://www.w3.org/1999/02/22-rdf-syntax-ns#"
   xmlns:svg="http://www.w3.org/2000/svg"
   xmlns="http://www.w3.org/2000/svg"
   xmlns:sodipodi="http://sodipodi.sourceforge.net/DTD/sodipodi-0.dtd"
   xmlns:inkscape="http://www.inkscape.org/namespaces/inkscape"
   width="210mm"
   height="297mm"
   viewBox="0 0 210 297"
   version="1.1"
   id="svg1156"
   inkscape:version="0.92.5 (2060ec1f9f, 2020-04-08)"
   sodipodi:docname="iconebus.svg">
  <defs
     id="defs1150" />
  <sodipodi:namedview
     id="base"
     pagecolor="#ffffff"
     bordercolor="#666666"
     borderopacity="1.0"
     inkscape:pageopacity="0.0"
     inkscape:pageshadow="2"
     inkscape:zoom="0.35"
     inkscape:cx="-64.285714"
     inkscape:cy="560"
     inkscape:document-units="mm"
     inkscape:current-layer="layer1"
     showgrid="false"
     inkscape:window-width="1366"
     inkscape:window-height="705"
     inkscape:window-x="-8"
     inkscape:window-y="-8"
     inkscape:window-maximized="1" />
  <metadata
     id="metadata1153">
    <rdf:RDF>
      <cc:Work
         rdf:about="">
        <dc:format>image/svg+xml</dc:format>
        <dc:type
           rdf:resource="http://purl.org/dc/dcmitype/StillImage" />
        <dc:title></dc:title>
      </cc:Work>
    </rdf:RDF>
  </metadata>
  <g
     inkscape:label="Camada 1"
     inkscape:groupmode="layer"
     id="layer1">
    <g
       id="g1765">
      <g
         style="fill:#0000ff"
         transform="matrix(1.1123399,0,0,1.1119741,-211.18091,-133.29027)"
         id="g5749">
        <g
           style="fill:#0000ff"
           id="g5614"
           transform="matrix(0.26458333,0,0,0.26458333,218.24493,171.00191)">
          <g
             style="fill:#0000ff"
             id="g5612">
            <path
               style="fill:#0000ff"
               inkscape:connector-curvature="0"
               d="M 264.65,2.93 C 262.79,1.07 260.21,0 257.58,0 c -2.63,0 -5.21,1.069 -7.07,2.93 -1.86,1.861 -2.93,4.44 -2.93,7.07 0,2.63 1.07,5.21 2.93,7.069 1.86,1.861 4.44,2.931 7.07,2.931 2.63,0 5.2,-1.07 7.07,-2.931 1.86,-1.859 2.93,-4.439 2.93,-7.069 0,-2.63 -1.07,-5.21 -2.93,-7.07 z"
               id="path5610" />
          </g>
        </g>
        <g
           style="fill:#0000ff"
           id="g5620"
           transform="matrix(0.26458333,0,0,0.26458333,218.24493,171.00191)">
          <g
             style="fill:#0000ff"
             id="g5618">
            <path
               style="fill:#0000ff"
               inkscape:connector-curvature="0"
               d="M 492,96.642 V 68.492 C 492,53.324 479.66,40.984 464.492,40.984 H 447.13 C 442.871,17.706 422.451,0 397.96,0 h -97.626 c -5.523,0 -10,4.478 -10,10 0,5.522 4.477,10 10,10 h 97.626 c 16.542,0 30,13.458 30,30 V 80 H 332 V 50 c 0,-5.522 -4.477,-10 -10,-10 H 190 c -5.523,0 -10,4.478 -10,10 V 80 H 84.131 V 50 c 0,-16.542 13.458,-30 30,-30 H 214.5 c 5.523,0 10,-4.478 10,-10 0,-5.522 -4.477,-10 -10,-10 H 114.131 C 89.641,0 69.22,17.705 64.961,40.984 H 47.508 C 32.34,40.984 20,53.324 20,68.492 v 28.15 C 8.361,100.77 0,111.885 0,124.922 v 37.369 c 0,16.542 13.458,30 30,30 16.542,0 30,-13.458 30,-30 V 124.922 C 60,111.886 51.639,100.77 40,96.642 v -28.15 c 0,-4.14 3.368,-7.508 7.508,-7.508 H 64.132 V 393 c 0,20.086 11.912,37.433 29.037,45.376 V 474 c 0,20.953 17.047,38 38,38 20.953,0 38,-17.047 38,-38 v -31 h 173.918 v 31 c 0,20.953 17.047,38 38,38 20.953,0 38,-17.047 38,-38 v -35.697 c 17.038,-7.978 28.874,-25.28 28.874,-45.303 V 60.984 h 16.532 c 4.14,0 7.508,3.368 7.508,7.508 v 28.15 c -11.639,4.128 -20,15.243 -20,28.28 v 37.369 c 0,16.542 13.458,30 30,30 16.542,0 30,-13.458 30,-30 V 124.922 C 512,111.885 503.639,100.771 492,96.642 Z m -452,65.65 c 0,5.514 -4.486,10 -10,10 -5.514,0 -10,-4.486 -10,-10 v -37.369 c 0,-5.514 4.486,-10 10,-10 5.514,0 10,4.486 10,10 z M 326.644,100 295.493,131.151 c -3.905,3.905 -3.905,10.237 0,14.143 1.953,1.952 4.512,2.929 7.071,2.929 2.559,0 5.119,-0.977 7.071,-2.929 L 354.929,100 h 58.84 L 266.004,247.764 V 100 Z M 200,60 H 312 V 80 H 200 Z m 3.282,174.6 c -3.905,-3.903 -10.236,-3.904 -14.143,0 l -62.159,62.159 h -6.409 l -30.927,-30.927 156.36,-156.36 v 187.287 h -90.739 l 48.017,-48.017 c 3.905,-3.905 3.906,-10.237 0,-14.142 z M 84.131,100 h 143.06 L 84.131,243.06 Z m 65.037,374 c 0,9.925 -8.075,18 -18,18 -9.925,0 -18,-8.075 -18,-18 v -31 h 0.963 35.037 z m 249.918,0 c 0,9.925 -8.075,18 -18,18 -9.925,0 -18,-8.075 -18,-18 v -31 h 34.874 1.126 z m 28.874,-81 c 0,16.542 -13.458,30 -30,30 H 114.131 c -16.542,0 -30,-13.458 -30,-30 V 288.604 l 25.227,25.227 c 1.875,1.875 4.419,2.929 7.071,2.929 h 279.142 c 2.652,0 5.196,-1.054 7.071,-2.929 l 25.318,-25.318 z m 0,-132.772 -36.531,36.531 H 266.004 v -20.71 L 427.96,114.094 Z M 492,162.292 c 0,5.514 -4.486,10 -10,10 -5.514,0 -10,-4.486 -10,-10 v -37.369 c 0,-5.514 4.486,-10 10,-10 5.514,0 10,4.486 10,10 z"
               id="path5616" />
          </g>
        </g>
        <g
           style="fill:#0000ff"
           id="g5626"
           transform="matrix(0.26458333,0,0,0.26458333,218.24493,171.00191)">
          <g
             style="fill:#0000ff"
             id="g5624">
            <path
               style="fill:#0000ff"
               inkscape:connector-curvature="0"
               d="m 140.044,339.88 c -16.542,0 -30,13.458 -30,30 0,16.542 13.458,30 30,30 16.542,0 30,-13.458 30,-30 0,-16.542 -13.458,-30 -30,-30 z m 0,40 c -5.514,0 -10,-4.486 -10,-10 0,-5.514 4.486,-10 10,-10 5.514,0 10,4.486 10,10 0,5.514 -4.486,10 -10,10 z"
               id="path5622" />
          </g>
        </g>
        <g
           style="fill:#0000ff"
           id="g5632"
           transform="matrix(0.26458333,0,0,0.26458333,218.24493,171.00191)">
          <g
             style="fill:#0000ff"
             id="g5630">
            <path
               style="fill:#0000ff"
               inkscape:connector-curvature="0"
               d="m 371.956,339.88 c -16.542,0 -30,13.458 -30,30 0,16.542 13.458,30 30,30 16.542,0 30,-13.458 30,-30 0,-16.542 -13.458,-30 -30,-30 z m 0,40 c -5.514,0 -10,-4.486 -10,-10 0,-5.514 4.486,-10 10,-10 5.514,0 10,4.486 10,10 0,5.514 -4.486,10 -10,10 z"
               id="path5628" />
          </g>
        </g>
        <g
           style="fill:#0000ff"
           id="g5638"
           transform="matrix(0.26458333,0,0,0.26458333,218.24493,171.00191)">
          <g
             style="fill:#0000ff"
             id="g5636">
            <path
               style="fill:#0000ff"
               inkscape:connector-curvature="0"
               d="m 308.083,339.88 h -104 c -5.523,0 -10,4.478 -10,10 v 40 c 0,5.522 4.477,10 10,10 h 104 c 5.523,0 10,-4.478 10,-10 v -40 c 0,-5.523 -4.477,-10 -10,-10 z m -10,40 h -84 v -20 h 84 z"
               id="path5634" />
          </g>
        </g>
      </g>
      <ellipse
         ry="45.86673"
         rx="44.007015"
         cy="171.61327"
         cx="156.62233"
         id="path5757"
         style="opacity:1;fill:#0000ff;stroke:#d5e5ff;stroke-width:1.27073455" />
      <g
         style="fill:#ffffff;stroke:#0044aa"
         transform="matrix(0.25422388,0,0,0.25576392,52.746633,66.961011)"
         id="g4103">
        <g
           style="fill:#ffffff;stroke:#0044aa"
           id="g4101">
          <polygon
             style="fill:#ffffff;stroke:#0044aa"
             id="polygon4099"
             points="388.242,387.743 304.405,387.743 304.405,427.665 388.242,427.665 388.242,511.501 428.164,511.501 428.164,427.665 512,427.665 512,387.743 428.164,387.743 428.164,303.906 388.242,303.906 " />
        </g>
      </g>
    </g>
  </g>
</svg>
