<?xml version="1.0" encoding="UTF-8" standalone="no"?>
<svg
   xmlns:dc="http://purl.org/dc/elements/1.1/"
   xmlns:cc="http://creativecommons.org/ns#"
   xmlns:rdf="http://www.w3.org/1999/02/22-rdf-syntax-ns#"
   xmlns:svg="http://www.w3.org/2000/svg"
   xmlns="http://www.w3.org/2000/svg"
   xmlns:sodipodi="http://sodipodi.sourceforge.net/DTD/sodipodi-0.dtd"
   xmlns:inkscape="http://www.inkscape.org/namespaces/inkscape"
   height="464pt"
   viewBox="0 0 464 464"
   width="464pt"
   version="1.1"
   id="svg10"
   sodipodi:docname="sair.svg"
   inkscape:version="0.92.5 (2060ec1f9f, 2020-04-08)">
  <metadata
     id="metadata16">
    <rdf:RDF>
      <cc:Work
         rdf:about="">
        <dc:format>image/svg+xml</dc:format>
        <dc:type
           rdf:resource="http://purl.org/dc/dcmitype/StillImage" />
      </cc:Work>
    </rdf:RDF>
  </metadata>
  <defs
     id="defs14" />
  <sodipodi:namedview
     pagecolor="#ffffff"
     bordercolor="#666666"
     borderopacity="1"
     objecttolerance="10"
     gridtolerance="10"
     guidetolerance="10"
     inkscape:pageopacity="0"
     inkscape:pageshadow="2"
     inkscape:window-width="1366"
     inkscape:window-height="705"
     id="namedview12"
     showgrid="false"
     inkscape:zoom="0.38146552"
     inkscape:cx="-247.72881"
     inkscape:cy="309.33333"
     inkscape:window-x="-8"
     inkscape:window-y="-8"
     inkscape:window-maximized="1"
     inkscape:current-layer="svg10" />
  <path
     d="m 456.33898,232.51695 c 0,122.15679 -99.46977,221.18644 -222.16949,221.18644 C 111.46978,453.70339 12,354.67374 12,232.51695 12,110.36015 111.46978,11.330508 234.16949,11.330508 c 122.69972,0 222.16949,99.029642 222.16949,221.186442 z m 0,0"
     id="path2"
     style="fill:none;stroke:#00222b;stroke-width:7.49999975;stroke-miterlimit:4;stroke-dasharray:none"
     inkscape:connector-curvature="0" />
  <g
     fill="#cfdfe8"
     id="g8"
     style="fill:#00222b;fill-opacity:1">
    <path
       d="m224 48h16c13.253906 0 24 10.746094 24 24v136c0 13.253906-10.746094 24-24 24h-16c-13.253906 0-24-10.746094-24-24v-136c0-13.253906 10.746094-24 24-24zm0 0"
       id="path4"
       style="fill:#00222b;fill-opacity:1" />
    <path
       d="m152 152v-48c-43.199219 26.800781-80 72-80 136 0 83.945312 76.054688 152 160 152s160-68.054688 160-152c0-64-36.800781-109.199219-80-136v48c19.792969 20.199219 40 48 40 88 0 61.855469-58.144531 112-120 112s-120-50.144531-120-112c0-40 20.207031-67.800781 40-88zm0 0"
       id="path6"
       style="fill:#00222b;fill-opacity:1" />
  </g>
</svg>
